<?xml version="1.0" encoding="UTF-8"?>
<svg xmlns="http://www.w3.org/2000/svg" xmlns:xlink="http://www.w3.org/1999/xlink" width="150pt" height="106pt" viewBox="0 0 150 106" version="1.1">
<g id="surface1">
<path style=" stroke:none;fill-rule:nonzero;fill:rgb(0%,0%,0%);fill-opacity:1;" d="M 139.273438 47.160156 C 139.125 45.261719 138.449219 43.375 138.03125 41.488281 C 137.191406 42.878906 136.800781 44.246094 136.394531 45.613281 C 133.171875 56.773438 122.371094 63.324219 106.230469 64.046875 C 104.863281 64.109375 103.214844 64.703125 102.285156 65.421875 C 98.925781 68.03125 97.078125 68.507812 92.445312 67.152344 C 89.59375 66.3125 86.851562 65.847656 83.699219 66.3125 C 79.351562 66.949219 77.265625 66.21875 75.359375 63.3125 C 73.964844 61.171875 71.773438 60.027344 68.714844 59.371094 C 60.75 57.664062 55.230469 53.933594 52.351562 48.496094 C 46.753906 37.90625 50.578125 28.34375 59.414062 19.449219 C 60.328125 18.527344 61.546875 18.019531 63.179688 18.601562 C 65.371094 19.386719 67.230469 18.78125 69.058594 17.925781 C 72.464844 16.335938 75.960938 14.820312 79.304688 13.164062 C 80.265625 12.6875 81.316406 11.914062 81.554688 11.152344 C 82.769531 7.15625 77.128906 1.503906 71.386719 1.101562 C 65.191406 0.667969 60.675781 2.851562 57.480469 6.414062 C 54.855469 9.328125 55.289062 12.328125 57.929688 15.148438 C 59.070312 16.355469 58.964844 17.203125 57.253906 18.0625 C 55.695312 18.835938 54.253906 19.746094 52.800781 20.628906 C 43.335938 26.351562 38.324219 33.613281 37.949219 42.433594 C 37.828125 45.136719 38.023438 47.871094 37.636719 50.550781 C 36.960938 55.257812 36.105469 59.933594 38.398438 64.542969 C 38.609375 64.96875 38.714844 65.421875 38.761719 65.867188 C 38.894531 67.195312 38.023438 67.511719 36.421875 66.949219 C 35.773438 66.714844 35.175781 66.417969 34.574219 66.121094 C 28.800781 63.230469 24.929688 59.273438 22.109375 54.792969 C 15.046875 43.535156 15.628906 32.722656 26.234375 22.589844 C 27.71875 21.167969 29.503906 19.917969 31.140625 18.582031 C 24.359375 21.105469 19.546875 25.003906 15.914062 29.59375 C 11.730469 34.875 9.496094 40.597656 9.988281 46.683594 C 10.589844 54.007812 10.859375 61.382812 12.511719 68.59375 C 13.648438 73.542969 16.558594 78.34375 19.289062 83.03125 C 22.648438 88.816406 28.726562 92.242188 38.039062 92.210938 C 45.480469 92.1875 47.070312 90.695312 44.984375 85.722656 C 44.054688 83.507812 43.394531 81.21875 42.871094 78.9375 C 42.71875 78.3125 43.515625 77.582031 43.875 76.902344 C 44.609375 77.402344 45.601562 77.816406 46.035156 78.417969 C 47.535156 80.558594 48.808594 82.777344 50.234375 84.9375 C 53.984375 90.597656 57.449219 96.417969 64.710938 100.445312 C 72.691406 104.875 81.570312 106.042969 91.230469 103.859375 C 94.828125 103.042969 95.503906 102.015625 93.886719 99.640625 C 91.289062 95.804688 89.910156 91.753906 89.296875 87.566406 C 88.726562 83.664062 88.828125 79.753906 91.710938 76.277344 C 92.609375 75.195312 94.589844 74.082031 96.253906 73.933594 C 98.460938 73.734375 99.824219 75.386719 99.988281 76.785156 C 100.394531 80.15625 100.589844 83.570312 100.394531 86.953125 C 100.246094 89.570312 99.089844 92.15625 98.941406 94.773438 C 98.746094 98.0625 101.699219 100.582031 105.734375 100.394531 C 113.265625 100.023438 120.046875 98.335938 124.003906 93.257812 C 127.710938 88.511719 130.695312 83.558594 133.171875 78.398438 C 138.089844 68.230469 140.113281 57.84375 139.273438 47.160156 Z M 139.273438 47.160156 "/>
<path style=" stroke:none;fill-rule:nonzero;fill:rgb(0%,0%,0%);fill-opacity:1;" d="M 133.003906 7.609375 C 129.359375 6.019531 125.355469 5.796875 121.546875 7.261719 C 117.628906 8.753906 115.5 11.234375 114.570312 14.828125 C 115.140625 15.421875 115.753906 16.417969 116.789062 17.066406 C 119.925781 19.003906 123.390625 20.679688 126.40625 22.695312 C 128.566406 24.148438 130.738281 24.371094 133.066406 23.40625 C 136.394531 22.039062 138.855469 20.042969 139.769531 17.332031 C 140.96875 13.789062 138.34375 9.933594 133.003906 7.609375 Z M 133.003906 7.609375 "/>
<path style=" stroke:none;fill-rule:nonzero;fill:rgb(0%,0%,0%);fill-opacity:1;" d="M 112.996094 38.847656 C 110.535156 37.949219 107.910156 37.789062 105.886719 39.230469 C 103.605469 40.863281 100.964844 42.8125 102.089844 45.261719 C 103.363281 48.039062 105.496094 50.65625 107.578125 53.203125 C 108.328125 54.113281 110.085938 54.609375 110.730469 54.960938 C 114.40625 54.832031 116.578125 54.101562 118.035156 52.542969 C 121.875 48.472656 119.144531 41.128906 112.996094 38.847656 Z M 112.996094 38.847656 "/>
<path style=" stroke:none;fill-rule:nonzero;fill:rgb(0%,0%,0%);fill-opacity:1;" d="M 82.289062 37.726562 C 80.804688 35.414062 77.804688 34.492188 74.398438 35.308594 C 68.65625 36.675781 64.90625 40.386719 64.90625 44.699219 C 64.90625 47.785156 66.75 49.988281 69.945312 50.722656 C 73.003906 51.421875 75.480469 50.574219 78.34375 47.847656 C 79.109375 47.128906 79.785156 46.320312 80.730469 45.75 C 84.644531 43.375 84.164062 40.628906 82.289062 37.726562 Z M 82.289062 37.726562 "/>
<path style=" stroke:none;fill-rule:nonzero;fill:rgb(0%,0%,0%);fill-opacity:1;" d="M 94.769531 58.566406 C 91.785156 58.035156 88.726562 57.726562 85.46875 57.3125 C 84.40625 57.546875 83.101562 57.683594 82.050781 58.109375 C 80.878906 58.585938 80.746094 59.445312 82.078125 59.921875 C 86.070312 61.382812 89.835938 64.003906 94.753906 61.375 C 95.550781 60.949219 96.300781 60.472656 97.066406 60.027344 C 96.300781 59.519531 95.640625 58.714844 94.769531 58.566406 Z M 94.769531 58.566406 "/>
<path style=" stroke:none;fill-rule:nonzero;fill:rgb(0%,0%,0%);fill-opacity:1;" d="M 139.273438 47.160156 C 139.125 45.261719 138.449219 43.375 138.03125 41.488281 C 137.191406 42.878906 136.800781 44.246094 136.394531 45.613281 C 133.171875 56.773438 122.371094 63.324219 106.230469 64.046875 C 104.863281 64.109375 103.214844 64.703125 102.285156 65.421875 C 98.925781 68.03125 97.078125 68.507812 92.445312 67.152344 C 89.59375 66.3125 86.851562 65.847656 83.699219 66.3125 C 79.351562 66.949219 77.265625 66.21875 75.359375 63.3125 C 73.964844 61.171875 71.773438 60.027344 68.714844 59.371094 C 60.75 57.664062 55.230469 53.933594 52.351562 48.496094 C 46.753906 37.90625 50.578125 28.34375 59.414062 19.449219 C 60.328125 18.527344 61.546875 18.019531 63.179688 18.601562 C 65.371094 19.386719 67.230469 18.78125 69.058594 17.925781 C 72.464844 16.335938 75.960938 14.820312 79.304688 13.164062 C 80.265625 12.6875 81.316406 11.914062 81.554688 11.152344 C 82.769531 7.15625 77.128906 1.503906 71.386719 1.101562 C 65.191406 0.667969 60.675781 2.851562 57.480469 6.414062 C 54.855469 9.328125 55.289062 12.328125 57.929688 15.148438 C 59.070312 16.355469 58.964844 17.203125 57.253906 18.0625 C 55.695312 18.835938 54.253906 19.746094 52.800781 20.628906 C 43.335938 26.351562 38.324219 33.613281 37.949219 42.433594 C 37.828125 45.136719 38.023438 47.871094 37.636719 50.550781 C 36.960938 55.257812 36.105469 59.933594 38.398438 64.542969 C 38.609375 64.96875 38.714844 65.421875 38.761719 65.867188 C 38.894531 67.195312 38.023438 67.511719 36.421875 66.949219 C 35.773438 66.714844 35.175781 66.417969 34.574219 66.121094 C 28.800781 63.230469 24.929688 59.273438 22.109375 54.792969 C 15.046875 43.535156 15.628906 32.722656 26.234375 22.589844 C 27.71875 21.167969 29.503906 19.917969 31.140625 18.582031 C 24.359375 21.105469 19.546875 25.003906 15.914062 29.59375 C 11.730469 34.875 9.496094 40.597656 9.988281 46.683594 C 10.589844 54.007812 10.859375 61.382812 12.511719 68.59375 C 13.648438 73.542969 16.558594 78.34375 19.289062 83.03125 C 22.648438 88.816406 28.726562 92.242188 38.039062 92.210938 C 45.480469 92.1875 47.070312 90.695312 44.984375 85.722656 C 44.054688 83.507812 43.394531 81.21875 42.871094 78.9375 C 42.71875 78.3125 43.515625 77.582031 43.875 76.902344 C 44.609375 77.402344 45.601562 77.816406 46.035156 78.417969 C 47.535156 80.558594 48.808594 82.777344 50.234375 84.9375 C 53.984375 90.597656 57.449219 96.417969 64.710938 100.445312 C 72.691406 104.875 81.570312 106.042969 91.230469 103.859375 C 94.828125 103.042969 95.503906 102.015625 93.886719 99.640625 C 91.289062 95.804688 89.910156 91.753906 89.296875 87.566406 C 88.726562 83.664062 88.828125 79.753906 91.710938 76.277344 C 92.609375 75.195312 94.589844 74.082031 96.253906 73.933594 C 98.460938 73.734375 99.824219 75.386719 99.988281 76.785156 C 100.394531 80.15625 100.589844 83.570312 100.394531 86.953125 C 100.246094 89.570312 99.089844 92.15625 98.941406 94.773438 C 98.746094 98.0625 101.699219 100.582031 105.734375 100.394531 C 113.265625 100.023438 120.046875 98.335938 124.003906 93.257812 C 127.710938 88.511719 130.695312 83.558594 133.171875 78.398438 C 138.089844 68.230469 140.113281 57.84375 139.273438 47.160156 Z M 139.273438 47.160156 "/>
<path style=" stroke:none;fill-rule:nonzero;fill:rgb(0%,0%,0%);fill-opacity:1;" d="M 80.429688 67.234375 C 81.375 69.980469 84.71875 71.519531 89.234375 71.390625 C 92.820312 71.296875 94.800781 70.332031 95.160156 68.613281 C 90.328125 68.15625 85.5 67.703125 80.429688 67.234375 Z M 80.429688 67.234375 "/>
<path style=" stroke:none;fill-rule:nonzero;fill:rgb(0%,0%,0%);fill-opacity:1;" d="M 133.003906 7.609375 C 129.359375 6.019531 125.355469 5.796875 121.546875 7.261719 C 117.628906 8.753906 115.5 11.234375 114.570312 14.828125 C 115.140625 15.421875 115.753906 16.417969 116.789062 17.066406 C 119.925781 19.003906 123.390625 20.679688 126.40625 22.695312 C 128.566406 24.148438 130.738281 24.371094 133.066406 23.40625 C 136.394531 22.039062 138.855469 20.042969 139.769531 17.332031 C 140.96875 13.789062 138.34375 9.933594 133.003906 7.609375 Z M 133.003906 7.609375 "/>
<path style=" stroke:none;fill-rule:nonzero;fill:rgb(0%,0%,0%);fill-opacity:1;" d="M 112.996094 38.847656 C 110.535156 37.949219 107.910156 37.789062 105.886719 39.230469 C 103.605469 40.863281 100.964844 42.8125 102.089844 45.261719 C 103.363281 48.039062 105.496094 50.65625 107.578125 53.203125 C 108.328125 54.113281 110.085938 54.609375 110.730469 54.960938 C 114.40625 54.832031 116.578125 54.101562 118.035156 52.542969 C 121.875 48.472656 119.144531 41.128906 112.996094 38.847656 Z M 112.996094 38.847656 "/>
<path style=" stroke:none;fill-rule:nonzero;fill:rgb(0%,0%,0%);fill-opacity:1;" d="M 82.289062 37.726562 C 80.804688 35.414062 77.804688 34.492188 74.398438 35.308594 C 68.65625 36.675781 64.90625 40.386719 64.90625 44.699219 C 64.90625 47.785156 66.75 49.988281 69.945312 50.722656 C 73.003906 51.421875 75.480469 50.574219 78.34375 47.847656 C 79.109375 47.128906 79.785156 46.320312 80.730469 45.75 C 84.644531 43.375 84.164062 40.628906 82.289062 37.726562 Z M 82.289062 37.726562 "/>
<path style=" stroke:none;fill-rule:nonzero;fill:rgb(0%,0%,0%);fill-opacity:1;" d="M 94.769531 58.566406 C 91.785156 58.035156 88.726562 57.726562 85.46875 57.3125 C 84.40625 57.546875 83.101562 57.683594 82.050781 58.109375 C 80.878906 58.585938 80.746094 59.445312 82.078125 59.921875 C 86.070312 61.382812 89.835938 64.003906 94.753906 61.375 C 95.550781 60.949219 96.300781 60.472656 97.066406 60.027344 C 96.300781 59.519531 95.640625 58.714844 94.769531 58.566406 Z M 94.769531 58.566406 "/>
<path style=" stroke:none;fill-rule:nonzero;fill:rgb(0%,0%,0%);fill-opacity:1;" d="M 80.429688 67.234375 C 81.375 69.980469 84.71875 71.519531 89.234375 71.390625 C 92.820312 71.296875 94.800781 70.332031 95.160156 68.613281 C 90.328125 68.15625 85.5 67.703125 80.429688 67.234375 Z M 80.429688 67.234375 "/>
</g>
</svg>
